<?xml version="1.0" encoding="UTF-8"?>
<svg xmlns="http://www.w3.org/2000/svg" xmlns:xlink="http://www.w3.org/1999/xlink" width="240pt" height="240pt" viewBox="0 0 240 240" version="1.1">
<g id="surface15947971">
<path style=" stroke:none;fill-rule:nonzero;fill:rgb(80%,80%,80%);fill-opacity:1;" d="M 57.359375 228 C 32.308594 228 12 207.691406 12 182.640625 L 12 57.359375 C 12 32.308594 32.308594 12 57.359375 12 L 182.640625 12 C 207.691406 12 228 32.308594 228 57.359375 L 228 182.640625 C 228 207.691406 207.691406 228 182.640625 228 Z M 177.839844 223.199219 C 202.890625 223.199219 223.199219 202.890625 223.199219 177.839844 L 223.199219 62.160156 C 223.199219 37.109375 202.890625 16.800781 177.839844 16.800781 L 62.160156 16.800781 C 37.109375 16.800781 16.800781 37.109375 16.800781 62.160156 L 16.800781 177.839844 C 16.800781 202.890625 37.109375 223.199219 62.160156 223.199219 Z M 177.839844 223.199219 "/>
<path style=" stroke:none;fill-rule:evenodd;fill:rgb(80%,80%,80%);fill-opacity:1;" d="M 115.398438 74 L 115.398438 115.398438 L 74 115.398438 L 74 124.601562 L 115.398438 124.601562 L 115.398438 166 L 124.601562 166 L 124.601562 124.601562 L 166 124.601562 L 166 115.398438 L 124.601562 115.398438 L 124.601562 74 Z M 115.398438 74 "/>
</g>
</svg>
